<svg width="18" height="18" viewBox="0 0 18 18" fill="none" xmlns="http://www.w3.org/2000/svg">
<g clip-path="url(#clip0_72_10)">
<path d="M0.75 10.875C0.749538 10.0466 0.960316 9.23176 1.36241 8.50748C1.76451 7.78321 2.34465 7.17342 3.048 6.73576C3.23363 5.28832 3.94035 3.95813 5.03589 2.99412C6.13143 2.03011 7.54071 1.49835 9 1.49835C10.4593 1.49835 11.8686 2.03011 12.9641 2.99412C14.0597 3.95813 14.7664 5.28832 14.952 6.73576C15.8244 7.27852 16.503 8.08306 16.891 9.03449C17.2789 9.98592 17.3563 11.0356 17.1121 12.0336C16.8679 13.0317 16.3146 13.9271 15.5313 14.5919C14.7479 15.2568 13.7745 15.6571 12.75 15.7358L5.25 15.75C2.733 15.5445 0.75 13.4415 0.75 10.875ZM12.636 14.2403C13.3454 14.1857 14.0194 13.9084 14.5617 13.4479C15.104 12.9874 15.487 12.3673 15.6558 11.6762C15.8247 10.9851 15.7708 10.2582 15.5019 9.59954C15.233 8.94086 14.7628 8.384 14.1585 8.00851L13.5532 7.63126L13.4632 6.92476C13.3231 5.84002 12.7927 4.84346 11.9712 4.12132C11.1497 3.39919 10.0934 3.0009 8.99962 3.0009C7.90587 3.0009 6.84954 3.39919 6.02807 4.12132C5.20659 4.84346 4.67619 5.84002 4.536 6.92476L4.446 7.63126L3.84225 8.00851C3.23797 8.38395 2.76779 8.94075 2.49885 9.59937C2.22991 10.258 2.17597 10.9848 2.34473 11.6759C2.51349 12.367 2.89633 12.9871 3.43856 13.4476C3.98079 13.9082 4.65469 14.1856 5.364 14.2403L5.49375 14.25H12.5062L12.636 14.2403ZM9.75 9.00001H12L9 12.75L6 9.00001H8.25V6.00001H9.75V9.00001Z" fill="#4545FE"/>
</g>
<defs>
<clipPath id="clip0_72_10">
<rect width="18" height="18" fill="white"/>
</clipPath>
</defs>
</svg>
