<svg width="33" height="32" viewBox="0 0 33 32" fill="none" xmlns="http://www.w3.org/2000/svg">
<path fill-rule="evenodd" clip-rule="evenodd" d="M25.4338 11.7284C25.4338 13.4031 25.8764 14.39 26.8504 15.5275C27.5885 16.3655 27.8244 17.4411 27.8244 18.608C27.8244 19.7736 27.4414 20.8801 26.6741 21.7785C25.6697 22.8556 24.253 23.5431 22.8073 23.6627C20.7122 23.8412 18.616 23.9916 16.4917 23.9916C14.3661 23.9916 12.2711 23.9017 10.176 23.6627C8.72899 23.5431 7.31241 22.8556 6.30927 21.7785C5.54201 20.8801 5.15771 19.7736 5.15771 18.608C5.15771 17.4411 5.39492 16.3655 6.1317 15.5275C7.13617 14.39 7.54961 13.4031 7.54961 11.7284V11.1604C7.54961 8.91778 8.10882 7.45135 9.26038 6.0158C10.9725 3.92226 13.7168 2.66666 16.4321 2.66666H16.5513C19.3249 2.66666 22.158 3.98268 23.841 6.1662C24.9329 7.5722 25.4338 8.97686 25.4338 11.1604V11.7284ZM12.5893 26.7477C12.5893 26.0764 13.2055 25.7688 13.7753 25.6372C14.4418 25.4963 18.5034 25.4963 19.17 25.6372C19.7398 25.7688 20.356 26.0764 20.356 26.7477C20.3228 27.3869 19.9478 27.9537 19.4297 28.3136C18.7578 28.8373 17.9694 29.1689 17.1452 29.2885C16.6893 29.3476 16.2414 29.3489 15.8014 29.2885C14.9758 29.1689 14.1874 28.8373 13.5169 28.3123C12.9974 27.9537 12.6224 27.3869 12.5893 26.7477Z" fill="white"/>
</svg>
