<svg width="38" height="38" viewBox="0 0 38 38" fill="none" xmlns="http://www.w3.org/2000/svg">
<g clip-path="url(#clip0_1_1099)">
<path d="M14.25 30.0833H19V20.4915L12.6667 14.9688L6.33334 20.4915V30.0833H11.0833V23.75H14.25V30.0833ZM33.25 33.25H4.75001C4.33008 33.25 3.92735 33.0832 3.63042 32.7863C3.33349 32.4893 3.16667 32.0866 3.16667 31.6667V19.7711C3.16665 19.5448 3.21511 19.3212 3.30879 19.1153C3.40247 18.9094 3.53919 18.7259 3.70975 18.5773L9.5 13.528V6.33333C9.5 5.91341 9.66682 5.51068 9.96375 5.21375C10.2607 4.91681 10.6634 4.75 11.0833 4.75H33.25C33.6699 4.75 34.0727 4.91681 34.3696 5.21375C34.6665 5.51068 34.8333 5.91341 34.8333 6.33333V31.6667C34.8333 32.0866 34.6665 32.4893 34.3696 32.7863C34.0727 33.0832 33.6699 33.25 33.25 33.25ZM25.3333 17.4167V20.5833H28.5V17.4167H25.3333ZM25.3333 23.75V26.9167H28.5V23.75H25.3333ZM25.3333 11.0833V14.25H28.5V11.0833H25.3333ZM19 11.0833V14.25H22.1667V11.0833H19Z" fill="#4545FE"/>
</g>
<defs>
<clipPath id="clip0_1_1099">
<rect width="38" height="38" fill="white"/>
</clipPath>
</defs>
</svg>
