<svg width="33" height="32" viewBox="0 0 33 32" fill="none" xmlns="http://www.w3.org/2000/svg">
<path fill-rule="evenodd" clip-rule="evenodd" d="M27.694 18.1068C28.1709 18.3601 28.5389 18.7601 28.7977 19.1601C29.3019 19.9868 29.2611 21.0001 28.7705 21.8935L27.8167 23.4935C27.3125 24.3468 26.3723 24.8801 25.4049 24.8801C24.928 24.8801 24.3965 24.7468 23.9605 24.4801C23.6063 24.2535 23.1975 24.1735 22.7615 24.1735C21.4124 24.1735 20.2815 25.2801 20.2405 26.6001C20.2405 28.1335 18.9869 29.3335 17.42 29.3335H15.5668C13.9861 29.3335 12.7326 28.1335 12.7326 26.6001C12.7053 25.2801 11.5744 24.1735 10.2254 24.1735C9.77572 24.1735 9.36694 24.2535 9.02629 24.4801C8.59026 24.7468 8.04521 24.8801 7.58193 24.8801C6.60085 24.8801 5.66065 24.3468 5.15647 23.4935L4.21627 21.8935C3.71211 21.0268 3.68486 19.9868 4.18902 19.1601C4.40705 18.7601 4.81582 18.3601 5.27911 18.1068C5.66065 17.9201 5.90591 17.6135 6.13755 17.2535C6.81886 16.1068 6.41007 14.6001 5.25186 13.9201C3.90287 13.1601 3.46685 11.4668 4.24353 10.1468L5.15647 8.57348C5.94679 7.25348 7.63643 6.78681 8.99903 7.56014C10.1845 8.20014 11.7243 7.77348 12.4192 6.64014C12.6372 6.26681 12.7598 5.86681 12.7326 5.46681C12.7053 4.94681 12.8552 4.45348 13.1141 4.05348C13.6183 3.22681 14.5312 2.69348 15.526 2.66681H17.4472C18.4556 2.66681 19.3685 3.22681 19.8727 4.05348C20.118 4.45348 20.2815 4.94681 20.2405 5.46681C20.2133 5.86681 20.336 6.26681 20.554 6.64014C21.2489 7.77348 22.7887 8.20014 23.9877 7.56014C25.3368 6.78681 27.04 7.25348 27.8167 8.57348L28.7296 10.1468C29.52 11.4668 29.0839 13.1601 27.7213 13.9201C26.5631 14.6001 26.1543 16.1068 26.8492 17.2535C27.0672 17.6135 27.3125 17.9201 27.694 18.1068ZM12.6372 16.0135C12.6372 18.1068 14.3677 19.7735 16.5071 19.7735C18.6463 19.7735 20.336 18.1068 20.336 16.0135C20.336 13.9201 18.6463 12.2401 16.5071 12.2401C14.3677 12.2401 12.6372 13.9201 12.6372 16.0135Z" fill="white"/>
</svg>
