<svg width="32" height="32" viewBox="0 0 32 32" fill="none" xmlns="http://www.w3.org/2000/svg">
<g clip-path="url(#clip0_1_1144)">
<path d="M26.6667 29.3333H5.33334V26.6667C5.33334 24.8986 6.03572 23.2029 7.28596 21.9526C8.53621 20.7024 10.2319 20 12 20H20C21.7681 20 23.4638 20.7024 24.7141 21.9526C25.9643 23.2029 26.6667 24.8986 26.6667 26.6667V29.3333ZM16 17.3333C14.9494 17.3333 13.9091 17.1264 12.9385 16.7244C11.9679 16.3223 11.086 15.7331 10.3432 14.9902C9.60029 14.2473 9.01101 13.3654 8.60897 12.3948C8.20694 11.4242 8.00001 10.3839 8.00001 9.33333C8.00001 8.28276 8.20694 7.24247 8.60897 6.27187C9.01101 5.30126 9.60029 4.41935 10.3432 3.67648C11.086 2.93361 11.9679 2.34434 12.9385 1.9423C13.9091 1.54026 14.9494 1.33333 16 1.33333C18.1217 1.33333 20.1566 2.17619 21.6569 3.67648C23.1572 5.17677 24 7.2116 24 9.33333C24 11.4551 23.1572 13.4899 21.6569 14.9902C20.1566 16.4905 18.1217 17.3333 16 17.3333Z" fill="#4545FE"/>
</g>
<defs>
<clipPath id="clip0_1_1144">
<rect width="32" height="32" fill="white"/>
</clipPath>
</defs>
</svg>
